<svg xmlns="http://www.w3.org/2000/svg" width="81.856" height="82.045" viewBox="0 0 81.856 82.045">
  <g id="customer-service" transform="translate(-0.572)">
    <g id="Group_2" data-name="Group 2" transform="translate(0.573 13.233)">
      <g id="Group_1" data-name="Group 1" transform="translate(0)">
        <path id="Path_1" data-name="Path 1" d="M67.067,138.226,64,129.034a9.263,9.263,0,0,0-7.131-6.184l-8.844-1.609v-.685a13.318,13.318,0,0,0,3.945-3.5h2.672a3.975,3.975,0,0,0,3.97-3.97V97.2a17.2,17.2,0,0,0-34.406,0v9.263a5.3,5.3,0,0,0,4.22,5.183,13.258,13.258,0,0,0,6.366,8.906v.685L25.95,122.85a9.262,9.262,0,0,0-7.13,6.184l-.529,1.589-4.507-4.507a1.326,1.326,0,0,1,0-1.872l5.227-5.226L9.2,109.207l-5.907,5.907a9.263,9.263,0,0,0,0,13.1L21.177,146.1a9.259,9.259,0,0,0,13.058.04l6.446-5.906-2.01-2.006Zm-11.1-25.143a1.325,1.325,0,0,1-1.323,1.323H53.532a13.144,13.144,0,0,0,.863-2.756,5.242,5.242,0,0,0,1.573-.626Zm-1.323-4.338v-4.557a2.624,2.624,0,0,1,0,4.557Zm-26.466,0a2.624,2.624,0,0,1,0-4.557Zm0-8.9v1.511a5.249,5.249,0,0,0-1.323.548V97.2a14.556,14.556,0,0,1,29.113,0v4.706a5.2,5.2,0,0,0-1.323-.548V99.85H53.322a14.56,14.56,0,0,1-10.36-4.291l-1.55-1.55-1.55,1.55A14.56,14.56,0,0,1,29.5,99.85Zm2.647,9.263v-6.667a17.157,17.157,0,0,0,10.586-4.7A17.149,17.149,0,0,0,52,102.446v6.667a10.507,10.507,0,0,1-1.432,5.293H41.412v2.647h6.979a10.57,10.57,0,0,1-17.566-7.94Zm14.556,12.623v.062l-3.97,3.97-3.97-3.97v-.062a13.223,13.223,0,0,0,7.94,0ZM21.329,129.87a6.619,6.619,0,0,1,5.093-4.419l9.25-1.681,5.739,5.739,5.738-5.738,9.249,1.681a6.617,6.617,0,0,1,5.093,4.419l1.9,5.707H36.025l-5.154-5.154-5.727,5.181a1.352,1.352,0,0,1-1.871,0l-2.89-2.89ZM9.2,112.949l6.069,6.069-1.437,1.437-6.069-6.069Zm23.2,31.28a6.618,6.618,0,0,1-9.357,0L5.161,126.344a6.618,6.618,0,0,1,0-9.357l.728-.728,6.069,6.069-.048.048a3.977,3.977,0,0,0,0,5.615l9.489,9.489a3.949,3.949,0,0,0,2.808,1.163,3.9,3.9,0,0,0,2.759-1.117l.1-.089,6.1,6.1Zm2.713-2.488-6.083-6.083,1.748-1.58,6.073,6.073Z" transform="translate(-0.58 -80)" fill="#e8b339"/>
      </g>
    </g>
    <g id="Group_4" data-name="Group 4" transform="translate(55.962)">
      <g id="Group_3" data-name="Group 3">
        <path id="Path_2" data-name="Path 2" d="M357.924,0H339.4a3.975,3.975,0,0,0-3.97,3.97V14.556a3.975,3.975,0,0,0,3.97,3.97h3.535l-1.368,7.981,12.77-7.981h3.59a3.975,3.975,0,0,0,3.97-3.97V3.97A3.975,3.975,0,0,0,357.924,0Zm1.323,14.556a1.326,1.326,0,0,1-1.323,1.323h-4.35l-8.4,5.252.9-5.252H339.4a1.325,1.325,0,0,1-1.323-1.323V3.97A1.325,1.325,0,0,1,339.4,2.647h18.526a1.326,1.326,0,0,1,1.323,1.323Z" transform="translate(-335.428)" fill="#e8b339"/>
      </g>
    </g>
    <g id="Group_6" data-name="Group 6" transform="translate(61.255 5.293)">
      <g id="Group_5" data-name="Group 5">
        <rect id="Rectangle_6" data-name="Rectangle 6" width="15.88" height="2.647" fill="#e8b339"/>
      </g>
    </g>
    <g id="Group_8" data-name="Group 8" transform="translate(61.255 10.586)">
      <g id="Group_7" data-name="Group 7">
        <rect id="Rectangle_7" data-name="Rectangle 7" width="10.586" height="2.647" fill="#e8b339"/>
      </g>
    </g>
    <g id="Group_10" data-name="Group 10" transform="translate(74.488 10.586)">
      <g id="Group_9" data-name="Group 9">
        <rect id="Rectangle_8" data-name="Rectangle 8" width="2.647" height="2.647" fill="#e8b339"/>
      </g>
    </g>
    <g id="Group_12" data-name="Group 12" transform="translate(0.572 3.97)">
      <g id="Group_11" data-name="Group 11">
        <path id="Path_3" data-name="Path 3" d="M41.405,24A37.029,37.029,0,0,0,5.349,52.643l-2.508-4.18L.572,49.824l4.651,7.751,7.751-4.651-1.362-2.269L8.026,52.806A34.415,34.415,0,0,1,51.6,28.182l.783-2.528A37.029,37.029,0,0,0,41.405,24Z" transform="translate(-0.572 -24)" fill="#e8b339"/>
      </g>
    </g>
    <g id="Group_14" data-name="Group 14" transform="translate(68.138 24.649)">
      <g id="Group_13" data-name="Group 13">
        <path id="Path_4" data-name="Path 4" d="M422.683,153.667l-7.751-4.651-4.65,7.752,2.269,1.362,2.316-3.86a34.435,34.435,0,0,1-5.832,32.782l2.055,1.667a37.058,37.058,0,0,0,6.341-35.115l3.889,2.333Z" transform="translate(-409.036 -149.016)" fill="#e8b339"/>
      </g>
    </g>
  </g>
</svg>
