<svg xmlns="http://www.w3.org/2000/svg" width="65.371" height="83.949" viewBox="0 0 65.371 83.949">
  <g id="security" transform="translate(-0.055 0)">
    <path id="Path_5" data-name="Path 5" d="M64.594,17,33.043.185a1.568,1.568,0,0,0-1.494.009L.87,17.006a1.571,1.571,0,0,0-.815,1.378V40.345A45.473,45.473,0,0,0,27.31,81.963l4.258,1.856a1.569,1.569,0,0,0,1.25,0l4.8-2.072A45.383,45.383,0,0,0,65.426,39.91V18.384A1.571,1.571,0,0,0,64.594,17ZM62.285,39.91a42.248,42.248,0,0,1-25.9,38.948l-.011.005-4.179,1.8-3.631-1.584A42.327,42.327,0,0,1,3.2,40.345V19.314L32.314,3.355l29.971,15.97Zm0,0" fill="#e8b339"/>
    <path id="Path_6" data-name="Path 6" d="M82.608,152.595a1.571,1.571,0,0,0-2.39,2.04l8.3,9.717a1.57,1.57,0,0,0,2.185.2l19.325-15.722a1.571,1.571,0,0,0-1.983-2.437L89.909,161.144Zm0,0" transform="translate(-61.883 -113.268)" fill="#e8b339"/>
  </g>
</svg>
