<svg xmlns="http://www.w3.org/2000/svg" width="84.122" height="84.12" viewBox="0 0 84.122 84.12">
  <g id="smile" transform="translate(0 -0.003)">
    <path id="Path_13" data-name="Path 13" d="M42.06,84.123A42.06,42.06,0,1,1,84.122,42.065,42.108,42.108,0,0,1,42.06,84.123Zm0-80.881A38.822,38.822,0,1,0,80.883,42.065,38.865,38.865,0,0,0,42.06,3.242Zm9.767,21.285a4.862,4.862,0,1,0,4.862,4.862A4.86,4.86,0,0,0,51.827,24.527Zm-20.244,0a4.862,4.862,0,1,0,4.862,4.862A4.86,4.86,0,0,0,31.584,24.527Zm31.368,29.25a2.43,2.43,0,1,0-3.258-3.6,26.2,26.2,0,0,1-35.163-.034,2.428,2.428,0,1,0-3.263,3.6,31.055,31.055,0,0,0,41.684.042Z" fill="#e8b339"/>
  </g>
</svg>
