<svg xmlns="http://www.w3.org/2000/svg" width="82.323" height="84.365" viewBox="0 0 82.323 84.365">
  <g id="tag" transform="translate(-5.315)">
    <path id="Path_7" data-name="Path 7" d="M142.725,173.47a7.392,7.392,0,1,0,0-10.454,7.37,7.37,0,0,0,0,10.454Zm2.038-8.416a4.51,4.51,0,1,1,0,6.378h0A4.515,4.515,0,0,1,144.763,165.054Z" transform="translate(-109.259 -129.941)" fill="#e8b339"/>
    <path id="Path_8" data-name="Path 8" d="M147,284.637a7.392,7.392,0,1,0,10.454,0A7.4,7.4,0,0,0,147,284.637Zm8.416,8.416a4.51,4.51,0,1,1,0-6.378A4.515,4.515,0,0,1,155.415,293.053Z" transform="translate(-112.711 -228.194)" fill="#e8b339"/>
    <path id="Path_9" data-name="Path 9" d="M133.9,219l-25.3,12.983a1.441,1.441,0,1,0,1.316,2.565l25.3-12.983A1.441,1.441,0,0,0,133.9,219Z" transform="translate(-82.804 -176.788)" fill="#e8b339"/>
    <path id="Path_10" data-name="Path 10" d="M87.638,9.322A9.333,9.333,0,0,0,78.316,0H68.261a9.333,9.333,0,0,0-9.322,9.322V15.88L45.4,14.547a5.793,5.793,0,0,0-4.681,1.675L6.539,50.4a4.19,4.19,0,0,0,0,5.918L33.363,83.14a4.184,4.184,0,0,0,5.918,0L73.456,48.965a5.8,5.8,0,0,0,1.675-4.681L73.466,27.356,84.908,15.914A9.262,9.262,0,0,0,87.638,9.322Zm-16.22,37.6L37.242,81.1a1.3,1.3,0,0,1-1.841,0h0L8.577,54.278a1.3,1.3,0,0,1,0-1.841L42.752,18.261a2.92,2.92,0,0,1,2.071-.859q.145,0,.29.014l13.826,1.36v4.37a6.318,6.318,0,1,0,5.909,10.62h0a6.319,6.319,0,0,0-3.026-10.619V19.059l5.614.552a2.94,2.94,0,0,1,2.632,2.632l2.2,22.322A2.923,2.923,0,0,1,71.417,46.926ZM59.162,26.088a6.335,6.335,0,0,0,4.429,4.429,3.424,3.424,0,0,1-.781,1.211h0a3.436,3.436,0,1,1-3.647-5.64ZM82.869,13.876,73.1,23.644l-.165-1.683a5.83,5.83,0,0,0-5.218-5.218l-5.9-.58V9.322a6.447,6.447,0,0,1,6.44-6.44H78.316a6.44,6.44,0,0,1,4.553,10.993Z" transform="translate(0)" fill="#e8b339"/>
  </g>
</svg>
